<mxfile host="app.diagrams.net" modified="2023-05-16T23:05:45.570Z" agent="Mozilla/5.0 (Macintosh; Intel Mac OS X 10.15; rv:109.0) Gecko/20100101 Firefox/113.0" etag="iXq_QMOjU-S6UZQvdN-c" version="21.3.2">
  <diagram name="Page-1" id="p0jUNSvovwUdganiQ01W">
    <mxGraphModel dx="1034" dy="646" grid="1" gridSize="10" guides="1" tooltips="1" connect="1" arrows="1" fold="1" page="1" pageScale="1" pageWidth="850" pageHeight="1100" math="0" shadow="0">
      <root>
        <mxCell id="0" />
        <mxCell id="1" parent="0" />
        <mxCell id="VYil5PhtoyVkyQc1fKR0-24" value="" style="rounded=1;whiteSpace=wrap;html=1;strokeWidth=3;fillWeight=4;hachureGap=8;hachureAngle=45;fillColor=#1ba1e2;sketch=1;gradientColor=none;perimeterSpacing=0;" vertex="1" parent="1">
          <mxGeometry x="200" y="480" width="120" height="60" as="geometry" />
        </mxCell>
        <mxCell id="VYil5PhtoyVkyQc1fKR0-29" value="" style="rounded=1;whiteSpace=wrap;html=1;strokeWidth=2;fillWeight=4;hachureGap=8;hachureAngle=45;fillColor=#fa6800;sketch=1;fontColor=#000000;strokeColor=#C73500;" vertex="1" parent="1">
          <mxGeometry x="345" y="660" width="120" height="60" as="geometry" />
        </mxCell>
        <mxCell id="VYil5PhtoyVkyQc1fKR0-32" value="" style="endArrow=classic;html=1;rounded=0;strokeWidth=2;sketch=1;curveFitting=1;jiggle=2;" edge="1" parent="1">
          <mxGeometry width="50" height="50" relative="1" as="geometry">
            <mxPoint x="350" y="650" as="sourcePoint" />
            <mxPoint x="260" y="550" as="targetPoint" />
          </mxGeometry>
        </mxCell>
        <mxCell id="VYil5PhtoyVkyQc1fKR0-33" value="&lt;font style=&quot;font-size: 37px;&quot;&gt;1&lt;/font&gt;" style="edgeLabel;html=1;align=center;verticalAlign=middle;resizable=0;points=[];" vertex="1" connectable="0" parent="VYil5PhtoyVkyQc1fKR0-32">
          <mxGeometry x="-0.0429" y="1" relative="1" as="geometry">
            <mxPoint as="offset" />
          </mxGeometry>
        </mxCell>
        <mxCell id="VYil5PhtoyVkyQc1fKR0-79" value="" style="shape=table;startSize=0;container=1;collapsible=0;childLayout=tableLayout;swimlaneLine=0;rounded=1;sketch=1;curveFitting=1;jiggle=2;" vertex="1" parent="1">
          <mxGeometry x="170" y="150" width="150" height="290" as="geometry" />
        </mxCell>
        <mxCell id="VYil5PhtoyVkyQc1fKR0-80" value="" style="shape=tableRow;horizontal=0;startSize=0;swimlaneHead=0;swimlaneBody=0;strokeColor=inherit;top=0;left=0;bottom=0;right=0;collapsible=0;dropTarget=0;fillColor=none;points=[[0,0.5],[1,0.5]];portConstraint=eastwest;" vertex="1" parent="VYil5PhtoyVkyQc1fKR0-79">
          <mxGeometry width="150" height="40" as="geometry" />
        </mxCell>
        <mxCell id="VYil5PhtoyVkyQc1fKR0-81" value="&lt;font style=&quot;font-size: 37px;&quot;&gt;1&lt;/font&gt;" style="shape=partialRectangle;html=1;whiteSpace=wrap;connectable=0;strokeColor=#b85450;overflow=hidden;fillColor=#f8cecc;top=0;left=0;bottom=0;right=0;pointerEvents=1;sketch=1;curveFitting=1;jiggle=2;" vertex="1" parent="VYil5PhtoyVkyQc1fKR0-80">
          <mxGeometry width="34" height="40" as="geometry">
            <mxRectangle width="34" height="40" as="alternateBounds" />
          </mxGeometry>
        </mxCell>
        <mxCell id="VYil5PhtoyVkyQc1fKR0-82" value="Choosing a product to purchase" style="shape=partialRectangle;html=1;whiteSpace=wrap;connectable=0;strokeColor=inherit;overflow=hidden;fillColor=none;top=0;left=0;bottom=0;right=0;pointerEvents=1;" vertex="1" parent="VYil5PhtoyVkyQc1fKR0-80">
          <mxGeometry x="34" width="116" height="40" as="geometry">
            <mxRectangle width="116" height="40" as="alternateBounds" />
          </mxGeometry>
        </mxCell>
        <mxCell id="VYil5PhtoyVkyQc1fKR0-83" value="" style="shape=tableRow;horizontal=0;startSize=0;swimlaneHead=0;swimlaneBody=0;strokeColor=inherit;top=0;left=0;bottom=0;right=0;collapsible=0;dropTarget=0;fillColor=none;points=[[0,0.5],[1,0.5]];portConstraint=eastwest;" vertex="1" parent="VYil5PhtoyVkyQc1fKR0-79">
          <mxGeometry y="40" width="150" height="40" as="geometry" />
        </mxCell>
        <mxCell id="VYil5PhtoyVkyQc1fKR0-84" value="&lt;font style=&quot;font-size: 37px;&quot;&gt;2&lt;/font&gt;" style="shape=partialRectangle;html=1;whiteSpace=wrap;connectable=0;strokeColor=#b85450;overflow=hidden;fillColor=#f8cecc;top=0;left=0;bottom=0;right=0;pointerEvents=1;sketch=1;curveFitting=1;jiggle=2;" vertex="1" parent="VYil5PhtoyVkyQc1fKR0-83">
          <mxGeometry width="34" height="40" as="geometry">
            <mxRectangle width="34" height="40" as="alternateBounds" />
          </mxGeometry>
        </mxCell>
        <mxCell id="VYil5PhtoyVkyQc1fKR0-85" value="Creating a payment transaction" style="shape=partialRectangle;html=1;whiteSpace=wrap;connectable=0;strokeColor=inherit;overflow=hidden;fillColor=none;top=0;left=0;bottom=0;right=0;pointerEvents=1;" vertex="1" parent="VYil5PhtoyVkyQc1fKR0-83">
          <mxGeometry x="34" width="116" height="40" as="geometry">
            <mxRectangle width="116" height="40" as="alternateBounds" />
          </mxGeometry>
        </mxCell>
        <mxCell id="VYil5PhtoyVkyQc1fKR0-86" value="" style="shape=tableRow;horizontal=0;startSize=0;swimlaneHead=0;swimlaneBody=0;strokeColor=inherit;top=0;left=0;bottom=0;right=0;collapsible=0;dropTarget=0;fillColor=none;points=[[0,0.5],[1,0.5]];portConstraint=eastwest;" vertex="1" parent="VYil5PhtoyVkyQc1fKR0-79">
          <mxGeometry y="80" width="150" height="61" as="geometry" />
        </mxCell>
        <mxCell id="VYil5PhtoyVkyQc1fKR0-87" value="&lt;font style=&quot;font-size: 37px;&quot;&gt;3&lt;/font&gt;" style="shape=partialRectangle;html=1;whiteSpace=wrap;connectable=0;strokeColor=#b85450;overflow=hidden;fillColor=#f8cecc;top=0;left=0;bottom=0;right=0;pointerEvents=1;sketch=1;curveFitting=1;jiggle=2;" vertex="1" parent="VYil5PhtoyVkyQc1fKR0-86">
          <mxGeometry width="34" height="61" as="geometry">
            <mxRectangle width="34" height="61" as="alternateBounds" />
          </mxGeometry>
        </mxCell>
        <mxCell id="VYil5PhtoyVkyQc1fKR0-88" value="Redirecting the user to the payment widget" style="shape=partialRectangle;html=1;whiteSpace=wrap;connectable=0;strokeColor=inherit;overflow=hidden;fillColor=none;top=0;left=0;bottom=0;right=0;pointerEvents=1;" vertex="1" parent="VYil5PhtoyVkyQc1fKR0-86">
          <mxGeometry x="34" width="116" height="61" as="geometry">
            <mxRectangle width="116" height="61" as="alternateBounds" />
          </mxGeometry>
        </mxCell>
        <mxCell id="VYil5PhtoyVkyQc1fKR0-89" value="" style="shape=tableRow;horizontal=0;startSize=0;swimlaneHead=0;swimlaneBody=0;strokeColor=inherit;top=0;left=0;bottom=0;right=0;collapsible=0;dropTarget=0;fillColor=none;points=[[0,0.5],[1,0.5]];portConstraint=eastwest;" vertex="1" parent="VYil5PhtoyVkyQc1fKR0-79">
          <mxGeometry y="141" width="150" height="46" as="geometry" />
        </mxCell>
        <mxCell id="VYil5PhtoyVkyQc1fKR0-90" value="&lt;font style=&quot;font-size: 37px;&quot;&gt;4&lt;/font&gt;" style="shape=partialRectangle;html=1;whiteSpace=wrap;connectable=0;strokeColor=#b85450;overflow=hidden;fillColor=#f8cecc;top=0;left=0;bottom=0;right=0;pointerEvents=1;sketch=1;curveFitting=1;jiggle=2;" vertex="1" parent="VYil5PhtoyVkyQc1fKR0-89">
          <mxGeometry width="34" height="46" as="geometry">
            <mxRectangle width="34" height="46" as="alternateBounds" />
          </mxGeometry>
        </mxCell>
        <mxCell id="VYil5PhtoyVkyQc1fKR0-91" value="Making the payment with cryptocurrency" style="shape=partialRectangle;html=1;whiteSpace=wrap;connectable=0;strokeColor=inherit;overflow=hidden;fillColor=none;top=0;left=0;bottom=0;right=0;pointerEvents=1;" vertex="1" parent="VYil5PhtoyVkyQc1fKR0-89">
          <mxGeometry x="34" width="116" height="46" as="geometry">
            <mxRectangle width="116" height="46" as="alternateBounds" />
          </mxGeometry>
        </mxCell>
        <mxCell id="VYil5PhtoyVkyQc1fKR0-92" value="" style="shape=tableRow;horizontal=0;startSize=0;swimlaneHead=0;swimlaneBody=0;strokeColor=inherit;top=0;left=0;bottom=0;right=0;collapsible=0;dropTarget=0;fillColor=none;points=[[0,0.5],[1,0.5]];portConstraint=eastwest;" vertex="1" parent="VYil5PhtoyVkyQc1fKR0-79">
          <mxGeometry y="187" width="150" height="53" as="geometry" />
        </mxCell>
        <mxCell id="VYil5PhtoyVkyQc1fKR0-93" value="&lt;font style=&quot;font-size: 37px;&quot;&gt;5&lt;/font&gt;" style="shape=partialRectangle;html=1;whiteSpace=wrap;connectable=0;strokeColor=#b85450;overflow=hidden;fillColor=#f8cecc;top=0;left=0;bottom=0;right=0;pointerEvents=1;sketch=1;curveFitting=1;jiggle=2;" vertex="1" parent="VYil5PhtoyVkyQc1fKR0-92">
          <mxGeometry width="34" height="53" as="geometry">
            <mxRectangle width="34" height="53" as="alternateBounds" />
          </mxGeometry>
        </mxCell>
        <mxCell id="VYil5PhtoyVkyQc1fKR0-94" value="Tracking the incoming cryptocurrency" style="shape=partialRectangle;html=1;whiteSpace=wrap;connectable=0;strokeColor=inherit;overflow=hidden;fillColor=none;top=0;left=0;bottom=0;right=0;pointerEvents=1;" vertex="1" parent="VYil5PhtoyVkyQc1fKR0-92">
          <mxGeometry x="34" width="116" height="53" as="geometry">
            <mxRectangle width="116" height="53" as="alternateBounds" />
          </mxGeometry>
        </mxCell>
        <mxCell id="VYil5PhtoyVkyQc1fKR0-115" style="shape=tableRow;horizontal=0;startSize=0;swimlaneHead=0;swimlaneBody=0;strokeColor=inherit;top=0;left=0;bottom=0;right=0;collapsible=0;dropTarget=0;fillColor=none;points=[[0,0.5],[1,0.5]];portConstraint=eastwest;" vertex="1" parent="VYil5PhtoyVkyQc1fKR0-79">
          <mxGeometry y="240" width="150" height="50" as="geometry" />
        </mxCell>
        <mxCell id="VYil5PhtoyVkyQc1fKR0-116" value="&lt;font style=&quot;font-size: 37px;&quot;&gt;6&lt;/font&gt;" style="shape=partialRectangle;html=1;whiteSpace=wrap;connectable=0;strokeColor=#b85450;overflow=hidden;fillColor=#f8cecc;top=0;left=0;bottom=0;right=0;pointerEvents=1;sketch=1;curveFitting=1;jiggle=2;" vertex="1" parent="VYil5PhtoyVkyQc1fKR0-115">
          <mxGeometry width="34" height="50" as="geometry">
            <mxRectangle width="34" height="50" as="alternateBounds" />
          </mxGeometry>
        </mxCell>
        <mxCell id="VYil5PhtoyVkyQc1fKR0-117" value="Checking the status of the payment transaction" style="shape=partialRectangle;html=1;whiteSpace=wrap;connectable=0;strokeColor=inherit;overflow=hidden;fillColor=none;top=0;left=0;bottom=0;right=0;pointerEvents=1;" vertex="1" parent="VYil5PhtoyVkyQc1fKR0-115">
          <mxGeometry x="34" width="116" height="50" as="geometry">
            <mxRectangle width="116" height="50" as="alternateBounds" />
          </mxGeometry>
        </mxCell>
        <mxCell id="VYil5PhtoyVkyQc1fKR0-96" value="" style="rounded=1;whiteSpace=wrap;html=1;strokeWidth=2;fillWeight=4;hachureGap=8;hachureAngle=45;fillColor=#6a00ff;sketch=1;strokeColor=#3700CC;fontColor=#ffffff;imageAspect=1;noLabel=0;curveFitting=0.95;" vertex="1" parent="1">
          <mxGeometry x="490" y="480" width="120" height="60" as="geometry" />
        </mxCell>
        <mxCell id="VYil5PhtoyVkyQc1fKR0-97" value="" style="endArrow=classic;html=1;rounded=0;strokeWidth=2;sketch=1;curveFitting=1;jiggle=2;" edge="1" parent="1">
          <mxGeometry width="50" height="50" relative="1" as="geometry">
            <mxPoint x="335" y="530" as="sourcePoint" />
            <mxPoint x="475" y="530" as="targetPoint" />
          </mxGeometry>
        </mxCell>
        <mxCell id="VYil5PhtoyVkyQc1fKR0-98" value="&lt;font style=&quot;font-size: 37px;&quot;&gt;2&lt;/font&gt;" style="edgeLabel;html=1;align=center;verticalAlign=middle;resizable=0;points=[];" vertex="1" connectable="0" parent="VYil5PhtoyVkyQc1fKR0-97">
          <mxGeometry x="-0.0429" y="1" relative="1" as="geometry">
            <mxPoint as="offset" />
          </mxGeometry>
        </mxCell>
        <mxCell id="VYil5PhtoyVkyQc1fKR0-100" value="&lt;font style=&quot;font-size: 16px;&quot;&gt;Your site&lt;/font&gt;" style="text;strokeColor=none;align=center;fillColor=none;html=1;verticalAlign=middle;rounded=0;labelBorderColor=none;labelBackgroundColor=none;textOpacity=70;" vertex="1" parent="1">
          <mxGeometry x="207.5" y="455" width="105" height="20" as="geometry" />
        </mxCell>
        <mxCell id="VYil5PhtoyVkyQc1fKR0-103" value="" style="endArrow=classic;html=1;strokeWidth=2;curved=1;sketch=1;curveFitting=1;jiggle=2;arcSize=20;" edge="1" parent="1">
          <mxGeometry width="50" height="50" relative="1" as="geometry">
            <mxPoint x="280" y="550" as="sourcePoint" />
            <mxPoint x="470" y="549" as="targetPoint" />
            <Array as="points">
              <mxPoint x="400" y="620" />
            </Array>
          </mxGeometry>
        </mxCell>
        <mxCell id="VYil5PhtoyVkyQc1fKR0-104" value="&lt;font style=&quot;font-size: 37px;&quot;&gt;3&lt;/font&gt;" style="edgeLabel;html=1;align=center;verticalAlign=middle;resizable=0;points=[];" vertex="1" connectable="0" parent="VYil5PhtoyVkyQc1fKR0-103">
          <mxGeometry x="-0.0429" y="1" relative="1" as="geometry">
            <mxPoint y="-26" as="offset" />
          </mxGeometry>
        </mxCell>
        <mxCell id="VYil5PhtoyVkyQc1fKR0-105" value="" style="rounded=1;whiteSpace=wrap;html=1;strokeWidth=2;fillWeight=4;hachureGap=8;hachureAngle=45;fillColor=#d80073;sketch=1;fontColor=#ffffff;strokeColor=#A50040;" vertex="1" parent="1">
          <mxGeometry x="345" y="360" width="120" height="60" as="geometry" />
        </mxCell>
        <mxCell id="VYil5PhtoyVkyQc1fKR0-107" value="" style="endArrow=classic;html=1;strokeWidth=2;curved=1;sketch=1;curveFitting=1;jiggle=2;" edge="1" parent="1">
          <mxGeometry width="50" height="50" relative="1" as="geometry">
            <mxPoint x="480" y="670" as="sourcePoint" />
            <mxPoint x="480" y="390" as="targetPoint" />
            <Array as="points">
              <mxPoint x="610" y="640" />
              <mxPoint x="670" y="530" />
              <mxPoint x="650" y="410" />
            </Array>
          </mxGeometry>
        </mxCell>
        <mxCell id="VYil5PhtoyVkyQc1fKR0-108" value="&lt;font style=&quot;font-size: 37px;&quot;&gt;4&lt;/font&gt;" style="edgeLabel;html=1;align=center;verticalAlign=middle;resizable=0;points=[];" vertex="1" connectable="0" parent="VYil5PhtoyVkyQc1fKR0-107">
          <mxGeometry x="-0.0429" y="1" relative="1" as="geometry">
            <mxPoint x="-8" y="-15" as="offset" />
          </mxGeometry>
        </mxCell>
        <mxCell id="VYil5PhtoyVkyQc1fKR0-118" value="" style="endArrow=classic;html=1;rounded=0;strokeWidth=2;sketch=1;curveFitting=1;jiggle=2;" edge="1" parent="1">
          <mxGeometry width="50" height="50" relative="1" as="geometry">
            <mxPoint x="490" y="470" as="sourcePoint" />
            <mxPoint x="420" y="430" as="targetPoint" />
          </mxGeometry>
        </mxCell>
        <mxCell id="VYil5PhtoyVkyQc1fKR0-119" value="&lt;font style=&quot;font-size: 37px;&quot;&gt;5&lt;/font&gt;" style="edgeLabel;html=1;align=center;verticalAlign=middle;resizable=0;points=[];" vertex="1" connectable="0" parent="VYil5PhtoyVkyQc1fKR0-118">
          <mxGeometry x="-0.0429" y="1" relative="1" as="geometry">
            <mxPoint as="offset" />
          </mxGeometry>
        </mxCell>
        <mxCell id="VYil5PhtoyVkyQc1fKR0-120" value="" style="endArrow=classic;html=1;rounded=0;strokeWidth=2;sketch=1;curveFitting=1;jiggle=2;" edge="1" parent="1">
          <mxGeometry width="50" height="50" relative="1" as="geometry">
            <mxPoint x="335" y="490" as="sourcePoint" />
            <mxPoint x="475" y="490" as="targetPoint" />
          </mxGeometry>
        </mxCell>
        <mxCell id="VYil5PhtoyVkyQc1fKR0-121" value="&lt;font style=&quot;font-size: 37px;&quot;&gt;6&lt;/font&gt;" style="edgeLabel;html=1;align=center;verticalAlign=middle;resizable=0;points=[];" vertex="1" connectable="0" parent="VYil5PhtoyVkyQc1fKR0-120">
          <mxGeometry x="-0.0429" y="1" relative="1" as="geometry">
            <mxPoint as="offset" />
          </mxGeometry>
        </mxCell>
        <mxCell id="VYil5PhtoyVkyQc1fKR0-123" value="&lt;font style=&quot;font-size: 16px;&quot;&gt;User&lt;/font&gt;" style="text;strokeColor=none;align=center;fillColor=none;html=1;verticalAlign=middle;rounded=0;labelBorderColor=none;labelBackgroundColor=none;textOpacity=70;" vertex="1" parent="1">
          <mxGeometry x="351" y="635" width="105" height="20" as="geometry" />
        </mxCell>
        <mxCell id="VYil5PhtoyVkyQc1fKR0-124" value="&lt;div&gt;&lt;font style=&quot;font-size: 16px;&quot;&gt;Payment widget&lt;/font&gt;&lt;br&gt;&lt;/div&gt;" style="text;strokeColor=none;align=center;fillColor=none;html=1;verticalAlign=middle;rounded=0;labelBorderColor=none;labelBackgroundColor=none;textOpacity=70;" vertex="1" parent="1">
          <mxGeometry x="497.5" y="450" width="105" height="20" as="geometry" />
        </mxCell>
        <mxCell id="VYil5PhtoyVkyQc1fKR0-129" value="&lt;div&gt;&lt;font style=&quot;font-size: 16px;&quot;&gt;Your crypto wallet&lt;/font&gt;&lt;br&gt;&lt;/div&gt;" style="text;strokeColor=none;align=center;fillColor=none;html=1;verticalAlign=middle;rounded=0;labelBorderColor=none;labelBackgroundColor=none;textOpacity=70;" vertex="1" parent="1">
          <mxGeometry x="351" y="330" width="105" height="20" as="geometry" />
        </mxCell>
      </root>
    </mxGraphModel>
  </diagram>
</mxfile>
